<mxfile host="app.diagrams.net" modified="2023-05-22T11:11:22.827Z" agent="Mozilla/5.0 (Macintosh; Intel Mac OS X 10_15_7) AppleWebKit/537.36 (KHTML, like Gecko) Chrome/112.0.0.0 Safari/537.36" etag="GLQpD59EasL3hm3zML3R" version="21.3.2" type="github">
  <diagram name="第 1 页" id="Njlo41OjyWwejUuAi6Hq">
    <mxGraphModel dx="1434" dy="803" grid="1" gridSize="10" guides="1" tooltips="1" connect="1" arrows="1" fold="1" page="1" pageScale="1" pageWidth="827" pageHeight="1169" math="0" shadow="0">
      <root>
        <mxCell id="0" />
        <mxCell id="1" parent="0" />
        <mxCell id="i9cdbf4a3B7cO0NMGAqY-13" value="" style="rounded=1;whiteSpace=wrap;html=1;fillColor=#dae8fc;strokeColor=#6c8ebf;" vertex="1" parent="1">
          <mxGeometry x="57" y="304" width="220" height="90" as="geometry" />
        </mxCell>
        <mxCell id="i9cdbf4a3B7cO0NMGAqY-1" value="data_id" style="rounded=0;whiteSpace=wrap;html=1;fillColor=#f8cecc;strokeColor=#b85450;" vertex="1" parent="1">
          <mxGeometry x="47" y="30" width="100" height="20" as="geometry" />
        </mxCell>
        <mxCell id="i9cdbf4a3B7cO0NMGAqY-2" value="attachment_file0_downloadUrl" style="rounded=0;whiteSpace=wrap;html=1;fillColor=#e1d5e7;strokeColor=#9673a6;" vertex="1" parent="1">
          <mxGeometry x="147" y="30" width="180" height="20" as="geometry" />
        </mxCell>
        <mxCell id="i9cdbf4a3B7cO0NMGAqY-4" value="..." style="rounded=0;whiteSpace=wrap;html=1;fillColor=#e1d5e7;strokeColor=#9673a6;" vertex="1" parent="1">
          <mxGeometry x="507" y="30" width="40" height="20" as="geometry" />
        </mxCell>
        <mxCell id="i9cdbf4a3B7cO0NMGAqY-29" value="" style="rounded=0;orthogonalLoop=1;jettySize=auto;html=1;entryX=0.873;entryY=1;entryDx=0;entryDy=0;entryPerimeter=0;" edge="1" parent="1" source="i9cdbf4a3B7cO0NMGAqY-7">
          <mxGeometry relative="1" as="geometry">
            <mxPoint x="427.95000000000005" y="50" as="targetPoint" />
          </mxGeometry>
        </mxCell>
        <mxCell id="i9cdbf4a3B7cO0NMGAqY-30" style="rounded=0;orthogonalLoop=1;jettySize=auto;html=1;exitX=0.13;exitY=0.77;exitDx=0;exitDy=0;exitPerimeter=0;" edge="1" parent="1" source="i9cdbf4a3B7cO0NMGAqY-7" target="i9cdbf4a3B7cO0NMGAqY-13">
          <mxGeometry relative="1" as="geometry">
            <mxPoint x="382.5999999999999" y="225.60000000000002" as="sourcePoint" />
          </mxGeometry>
        </mxCell>
        <mxCell id="i9cdbf4a3B7cO0NMGAqY-31" style="rounded=0;orthogonalLoop=1;jettySize=auto;html=1;exitX=0.55;exitY=0.95;exitDx=0;exitDy=0;exitPerimeter=0;" edge="1" parent="1" source="i9cdbf4a3B7cO0NMGAqY-7" target="i9cdbf4a3B7cO0NMGAqY-16">
          <mxGeometry relative="1" as="geometry">
            <mxPoint x="433" y="240" as="sourcePoint" />
          </mxGeometry>
        </mxCell>
        <mxCell id="i9cdbf4a3B7cO0NMGAqY-32" style="rounded=0;orthogonalLoop=1;jettySize=auto;html=1;exitX=0.96;exitY=0.7;exitDx=0;exitDy=0;exitPerimeter=0;" edge="1" parent="1" source="i9cdbf4a3B7cO0NMGAqY-7" target="i9cdbf4a3B7cO0NMGAqY-22">
          <mxGeometry relative="1" as="geometry">
            <mxPoint x="482.20000000000005" y="220" as="sourcePoint" />
          </mxGeometry>
        </mxCell>
        <mxCell id="i9cdbf4a3B7cO0NMGAqY-7" value="OSS Route" style="ellipse;shape=cloud;whiteSpace=wrap;html=1;fillColor=#d5e8d4;strokeColor=#82b366;" vertex="1" parent="1">
          <mxGeometry x="362" y="130" width="120" height="80" as="geometry" />
        </mxCell>
        <mxCell id="i9cdbf4a3B7cO0NMGAqY-9" value="" style="verticalLabelPosition=bottom;dashed=0;shadow=0;html=1;align=center;verticalAlign=top;shape=mxgraph.cabinets.motor_starter_32_125a;fillColor=#fff2cc;gradientColor=#ffd966;strokeColor=#d6b656;" vertex="1" parent="1">
          <mxGeometry x="77" y="324" width="30" height="50" as="geometry" />
        </mxCell>
        <mxCell id="i9cdbf4a3B7cO0NMGAqY-10" value="" style="verticalLabelPosition=bottom;dashed=0;shadow=0;html=1;align=center;verticalAlign=top;shape=mxgraph.cabinets.motor_starter_32_125a;fillColor=#fff2cc;gradientColor=#ffd966;strokeColor=#d6b656;" vertex="1" parent="1">
          <mxGeometry x="127" y="324" width="30" height="50" as="geometry" />
        </mxCell>
        <mxCell id="i9cdbf4a3B7cO0NMGAqY-11" value="" style="verticalLabelPosition=bottom;dashed=0;shadow=0;html=1;align=center;verticalAlign=top;shape=mxgraph.cabinets.motor_starter_32_125a;fillColor=#fff2cc;gradientColor=#ffd966;strokeColor=#d6b656;" vertex="1" parent="1">
          <mxGeometry x="222" y="324" width="30" height="50" as="geometry" />
        </mxCell>
        <mxCell id="i9cdbf4a3B7cO0NMGAqY-14" value="..." style="text;html=1;strokeColor=none;fillColor=none;align=center;verticalAlign=middle;whiteSpace=wrap;rounded=0;" vertex="1" parent="1">
          <mxGeometry x="162" y="334" width="60" height="30" as="geometry" />
        </mxCell>
        <mxCell id="i9cdbf4a3B7cO0NMGAqY-15" value="Ceph 0" style="text;html=1;strokeColor=none;fillColor=none;align=center;verticalAlign=middle;whiteSpace=wrap;rounded=0;fontSize=10;" vertex="1" parent="1">
          <mxGeometry x="57" y="298" width="60" height="30" as="geometry" />
        </mxCell>
        <mxCell id="i9cdbf4a3B7cO0NMGAqY-16" value="" style="rounded=1;whiteSpace=wrap;html=1;fillColor=#dae8fc;strokeColor=#6c8ebf;" vertex="1" parent="1">
          <mxGeometry x="317" y="307" width="220" height="90" as="geometry" />
        </mxCell>
        <mxCell id="i9cdbf4a3B7cO0NMGAqY-17" value="" style="verticalLabelPosition=bottom;dashed=0;shadow=0;html=1;align=center;verticalAlign=top;shape=mxgraph.cabinets.motor_starter_32_125a;fillColor=#fff2cc;gradientColor=#ffd966;strokeColor=#d6b656;" vertex="1" parent="1">
          <mxGeometry x="337" y="327" width="30" height="50" as="geometry" />
        </mxCell>
        <mxCell id="i9cdbf4a3B7cO0NMGAqY-18" value="" style="verticalLabelPosition=bottom;dashed=0;shadow=0;html=1;align=center;verticalAlign=top;shape=mxgraph.cabinets.motor_starter_32_125a;fillColor=#fff2cc;gradientColor=#ffd966;strokeColor=#d6b656;" vertex="1" parent="1">
          <mxGeometry x="387" y="327" width="30" height="50" as="geometry" />
        </mxCell>
        <mxCell id="i9cdbf4a3B7cO0NMGAqY-19" value="" style="verticalLabelPosition=bottom;dashed=0;shadow=0;html=1;align=center;verticalAlign=top;shape=mxgraph.cabinets.motor_starter_32_125a;fillColor=#fff2cc;gradientColor=#ffd966;strokeColor=#d6b656;" vertex="1" parent="1">
          <mxGeometry x="482" y="327" width="30" height="50" as="geometry" />
        </mxCell>
        <mxCell id="i9cdbf4a3B7cO0NMGAqY-20" value="..." style="text;html=1;strokeColor=none;fillColor=none;align=center;verticalAlign=middle;whiteSpace=wrap;rounded=0;" vertex="1" parent="1">
          <mxGeometry x="422" y="337" width="60" height="30" as="geometry" />
        </mxCell>
        <mxCell id="i9cdbf4a3B7cO0NMGAqY-21" value="Ceph 1" style="text;html=1;strokeColor=none;fillColor=none;align=center;verticalAlign=middle;whiteSpace=wrap;rounded=0;fontSize=10;" vertex="1" parent="1">
          <mxGeometry x="317" y="301" width="60" height="30" as="geometry" />
        </mxCell>
        <mxCell id="i9cdbf4a3B7cO0NMGAqY-22" value="" style="rounded=1;whiteSpace=wrap;html=1;fillColor=#dae8fc;strokeColor=#6c8ebf;" vertex="1" parent="1">
          <mxGeometry x="607" y="307" width="220" height="90" as="geometry" />
        </mxCell>
        <mxCell id="i9cdbf4a3B7cO0NMGAqY-23" value="" style="verticalLabelPosition=bottom;dashed=0;shadow=0;html=1;align=center;verticalAlign=top;shape=mxgraph.cabinets.motor_starter_32_125a;fillColor=#fff2cc;gradientColor=#ffd966;strokeColor=#d6b656;" vertex="1" parent="1">
          <mxGeometry x="627" y="327" width="30" height="50" as="geometry" />
        </mxCell>
        <mxCell id="i9cdbf4a3B7cO0NMGAqY-24" value="" style="verticalLabelPosition=bottom;dashed=0;shadow=0;html=1;align=center;verticalAlign=top;shape=mxgraph.cabinets.motor_starter_32_125a;fillColor=#fff2cc;gradientColor=#ffd966;strokeColor=#d6b656;" vertex="1" parent="1">
          <mxGeometry x="677" y="327" width="30" height="50" as="geometry" />
        </mxCell>
        <mxCell id="i9cdbf4a3B7cO0NMGAqY-25" value="" style="verticalLabelPosition=bottom;dashed=0;shadow=0;html=1;align=center;verticalAlign=top;shape=mxgraph.cabinets.motor_starter_32_125a;fillColor=#fff2cc;gradientColor=#ffd966;strokeColor=#d6b656;" vertex="1" parent="1">
          <mxGeometry x="772" y="327" width="30" height="50" as="geometry" />
        </mxCell>
        <mxCell id="i9cdbf4a3B7cO0NMGAqY-26" value="..." style="text;html=1;strokeColor=none;fillColor=none;align=center;verticalAlign=middle;whiteSpace=wrap;rounded=0;" vertex="1" parent="1">
          <mxGeometry x="712" y="337" width="60" height="30" as="geometry" />
        </mxCell>
        <mxCell id="i9cdbf4a3B7cO0NMGAqY-27" value="Ceph N" style="text;html=1;strokeColor=none;fillColor=none;align=center;verticalAlign=middle;whiteSpace=wrap;rounded=0;fontSize=10;" vertex="1" parent="1">
          <mxGeometry x="607" y="301" width="60" height="30" as="geometry" />
        </mxCell>
        <mxCell id="i9cdbf4a3B7cO0NMGAqY-28" value="..." style="text;html=1;strokeColor=none;fillColor=none;align=center;verticalAlign=middle;whiteSpace=wrap;rounded=0;" vertex="1" parent="1">
          <mxGeometry x="547" y="334" width="60" height="30" as="geometry" />
        </mxCell>
        <mxCell id="i9cdbf4a3B7cO0NMGAqY-33" value="attachment_file1_downloadUrl" style="rounded=0;whiteSpace=wrap;html=1;fillColor=#e1d5e7;strokeColor=#9673a6;" vertex="1" parent="1">
          <mxGeometry x="327" y="30" width="180" height="20" as="geometry" />
        </mxCell>
        <mxCell id="i9cdbf4a3B7cO0NMGAqY-34" value="attachment_fileN_downloadUrl" style="rounded=0;whiteSpace=wrap;html=1;fillColor=#e1d5e7;strokeColor=#9673a6;" vertex="1" parent="1">
          <mxGeometry x="547" y="30" width="180" height="20" as="geometry" />
        </mxCell>
        <mxCell id="i9cdbf4a3B7cO0NMGAqY-35" value="&lt;b&gt;&lt;font style=&quot;font-size: 14px;&quot;&gt;存储方案：&lt;/font&gt;&lt;/b&gt;&lt;br&gt;&lt;br&gt;1，附件存储采用内部对象存储组件Ceph&lt;br&gt;&lt;br&gt;2，单Ceph集群支持日均 PB 级存储&lt;br&gt;&lt;br&gt;3，可扩展，采用多Ceph集群模式支持EB级附件存储" style="text;html=1;strokeColor=none;fillColor=none;align=left;verticalAlign=top;whiteSpace=wrap;rounded=0;" vertex="1" parent="1">
          <mxGeometry x="47" y="440" width="310" height="100" as="geometry" />
        </mxCell>
        <mxCell id="i9cdbf4a3B7cO0NMGAqY-36" value="&lt;b&gt;&lt;font style=&quot;font-size: 14px;&quot;&gt;查询方案：&lt;/font&gt;&lt;/b&gt;&lt;br&gt;&lt;br&gt;1，对文本附件，将附件内容解析后回填至结构化数据 fileContent 字段中&lt;br&gt;&lt;br&gt;2，非文本附件，忽略附件内容回填&lt;br&gt;&lt;br&gt;3，附件保存成功后，将附件下载地址回填至结构化数据 url 字段中" style="text;html=1;strokeColor=none;fillColor=none;align=left;verticalAlign=top;whiteSpace=wrap;rounded=0;" vertex="1" parent="1">
          <mxGeometry x="397" y="440" width="405" height="130" as="geometry" />
        </mxCell>
        <mxCell id="i9cdbf4a3B7cO0NMGAqY-37" value="&lt;span style=&quot;color: rgb(74, 85, 96); font-family: menlo, monospace, Tahoma, 微软雅黑, 幼圆; font-size: 14px; background-color: rgb(255, 255, 255);&quot;&gt;[&lt;/span&gt;&lt;br style=&quot;box-sizing: border-box; color: rgb(74, 85, 96); font-family: menlo, monospace, Tahoma, 微软雅黑, 幼圆; font-size: 14px; background-color: rgb(255, 255, 255);&quot;&gt;&lt;span style=&quot;color: rgb(74, 85, 96); font-family: menlo, monospace, Tahoma, 微软雅黑, 幼圆; font-size: 14px; background-color: rgb(255, 255, 255);&quot;&gt;&amp;nbsp;&amp;nbsp;&amp;nbsp;&amp;nbsp;&lt;/span&gt;&lt;span style=&quot;box-sizing: border-box; font-size: 14px; color: rgb(74, 85, 96); font-family: menlo, monospace, Tahoma, 微软雅黑, 幼圆; background-color: rgb(255, 255, 255);&quot; data-type=&quot;object&quot;&gt;&lt;span style=&quot;box-sizing: border-box; display: inline-block; font-variant-numeric: normal; font-variant-east-asian: normal; font-variant-alternates: normal; font-kerning: auto; font-optical-sizing: auto; font-feature-settings: normal; font-variation-settings: normal; font-stretch: normal; line-height: 1; font-family: FontAwesome; font-size: inherit; text-rendering: auto; -webkit-font-smoothing: antialiased; cursor: pointer;&quot; class=&quot;fa fa-minus-square-o&quot;&gt;&lt;/span&gt;{&lt;br style=&quot;box-sizing: border-box;&quot;&gt;&amp;nbsp;&amp;nbsp;&amp;nbsp;&amp;nbsp;&amp;nbsp;&amp;nbsp;&amp;nbsp;&amp;nbsp;&lt;span style=&quot;box-sizing: border-box; color: rgb(146, 39, 143); font-weight: bold;&quot; class=&quot;json_key&quot;&gt;&quot;file&quot;&lt;/span&gt;:&lt;span style=&quot;box-sizing: border-box;&quot; data-size=&quot;2&quot; data-type=&quot;array&quot;&gt;&lt;span style=&quot;box-sizing: border-box; display: inline-block; font-variant-numeric: normal; font-variant-east-asian: normal; font-variant-alternates: normal; font-kerning: auto; font-optical-sizing: auto; font-feature-settings: normal; font-variation-settings: normal; font-stretch: normal; line-height: 1; font-family: FontAwesome; font-size: inherit; text-rendering: auto; -webkit-font-smoothing: antialiased; cursor: pointer;&quot; class=&quot;fa fa-minus-square-o&quot;&gt;&lt;/span&gt;[&lt;br style=&quot;box-sizing: border-box;&quot;&gt;&amp;nbsp;&amp;nbsp;&amp;nbsp;&amp;nbsp;&amp;nbsp;&amp;nbsp;&amp;nbsp;&amp;nbsp;&amp;nbsp;&amp;nbsp;&amp;nbsp;&amp;nbsp;&lt;span style=&quot;box-sizing: border-box;&quot; data-type=&quot;object&quot;&gt;&lt;span style=&quot;box-sizing: border-box; display: inline-block; font-variant-numeric: normal; font-variant-east-asian: normal; font-variant-alternates: normal; font-kerning: auto; font-optical-sizing: auto; font-feature-settings: normal; font-variation-settings: normal; font-stretch: normal; line-height: 1; font-family: FontAwesome; font-size: inherit; text-rendering: auto; -webkit-font-smoothing: antialiased; cursor: pointer;&quot; class=&quot;fa fa-minus-square-o&quot;&gt;&lt;/span&gt;{&lt;br style=&quot;box-sizing: border-box;&quot;&gt;&amp;nbsp;&amp;nbsp;&amp;nbsp;&amp;nbsp;&amp;nbsp;&amp;nbsp;&amp;nbsp;&amp;nbsp;&amp;nbsp;&amp;nbsp;&amp;nbsp;&amp;nbsp;&amp;nbsp;&amp;nbsp;&amp;nbsp;&amp;nbsp;&lt;span style=&quot;box-sizing: border-box; color: rgb(146, 39, 143); font-weight: bold;&quot; class=&quot;json_key&quot;&gt;&quot;name&quot;&lt;/span&gt;:&lt;span style=&quot;box-sizing: border-box; color: rgb(58, 181, 74); font-weight: bold;&quot; class=&quot;json_string&quot;&gt;&quot;attachment&amp;nbsp;name&quot;&lt;/span&gt;,&lt;br style=&quot;box-sizing: border-box;&quot;&gt;&amp;nbsp;&amp;nbsp;&amp;nbsp;&amp;nbsp;&amp;nbsp;&amp;nbsp;&amp;nbsp;&amp;nbsp;&amp;nbsp;&amp;nbsp;&amp;nbsp;&amp;nbsp;&amp;nbsp;&amp;nbsp;&amp;nbsp;&amp;nbsp;&lt;span style=&quot;box-sizing: border-box; color: rgb(146, 39, 143); font-weight: bold;&quot; class=&quot;json_key&quot;&gt;&quot;md5&quot;&lt;/span&gt;:&lt;span style=&quot;box-sizing: border-box; color: rgb(58, 181, 74); font-weight: bold;&quot; class=&quot;json_string&quot;&gt;&quot;md5&amp;nbsp;generated&amp;nbsp;from&amp;nbsp;attachment&quot;&lt;/span&gt;,&lt;br style=&quot;box-sizing: border-box;&quot;&gt;&amp;nbsp;&amp;nbsp;&amp;nbsp;&amp;nbsp;&amp;nbsp;&amp;nbsp;&amp;nbsp;&amp;nbsp;&amp;nbsp;&amp;nbsp;&amp;nbsp;&amp;nbsp;&amp;nbsp;&amp;nbsp;&amp;nbsp;&amp;nbsp;&lt;span style=&quot;box-sizing: border-box; color: rgb(146, 39, 143); font-weight: bold;&quot; class=&quot;json_key&quot;&gt;&quot;size&quot;&lt;/span&gt;:&lt;span style=&quot;box-sizing: border-box; color: rgb(58, 181, 74); font-weight: bold;&quot; class=&quot;json_string&quot;&gt;&quot;file&amp;nbsp;size&quot;&lt;/span&gt;,&lt;br style=&quot;box-sizing: border-box;&quot;&gt;&amp;nbsp;&amp;nbsp;&amp;nbsp;&amp;nbsp;&amp;nbsp;&amp;nbsp;&amp;nbsp;&amp;nbsp;&amp;nbsp;&amp;nbsp;&amp;nbsp;&amp;nbsp;&amp;nbsp;&amp;nbsp;&amp;nbsp;&amp;nbsp;&lt;span style=&quot;box-sizing: border-box; color: rgb(146, 39, 143); font-weight: bold;&quot; class=&quot;json_key&quot;&gt;&quot;url&quot;&lt;/span&gt;:&lt;span style=&quot;box-sizing: border-box; color: rgb(58, 181, 74); font-weight: bold;&quot; class=&quot;json_string&quot;&gt;&quot;attachment&amp;nbsp;download&amp;nbsp;url&quot;&lt;/span&gt;,&lt;br style=&quot;box-sizing: border-box;&quot;&gt;&amp;nbsp;&amp;nbsp;&amp;nbsp;&amp;nbsp;&amp;nbsp;&amp;nbsp;&amp;nbsp;&amp;nbsp;&amp;nbsp;&amp;nbsp;&amp;nbsp;&amp;nbsp;&amp;nbsp;&amp;nbsp;&amp;nbsp;&amp;nbsp;&lt;span style=&quot;box-sizing: border-box; color: rgb(146, 39, 143); font-weight: bold;&quot; class=&quot;json_key&quot;&gt;&quot;fileContent&quot;&lt;/span&gt;:&lt;span style=&quot;box-sizing: border-box; color: rgb(58, 181, 74); font-weight: bold;&quot; class=&quot;json_string&quot;&gt;&quot;attachment&amp;nbsp;content&quot;&lt;/span&gt;,&lt;br style=&quot;box-sizing: border-box;&quot;&gt;&amp;nbsp;&amp;nbsp;&amp;nbsp;&amp;nbsp;&amp;nbsp;&amp;nbsp;&amp;nbsp;&amp;nbsp;&amp;nbsp;&amp;nbsp;&amp;nbsp;&amp;nbsp;&amp;nbsp;&amp;nbsp;&amp;nbsp;&amp;nbsp;&lt;span style=&quot;box-sizing: border-box; color: rgb(146, 39, 143); font-weight: bold;&quot; class=&quot;json_key&quot;&gt;&quot;isMainFile&quot;&lt;/span&gt;:&lt;span style=&quot;box-sizing: border-box; color: rgb(58, 181, 74); font-weight: bold;&quot; class=&quot;json_string&quot;&gt;&quot;mainFile&amp;nbsp;or&amp;nbsp;not&quot;&lt;/span&gt;,&lt;br style=&quot;box-sizing: border-box;&quot;&gt;&amp;nbsp;&amp;nbsp;&amp;nbsp;&amp;nbsp;&amp;nbsp;&amp;nbsp;&amp;nbsp;&amp;nbsp;&amp;nbsp;&amp;nbsp;&amp;nbsp;&amp;nbsp;&amp;nbsp;&amp;nbsp;&amp;nbsp;&amp;nbsp;&lt;span style=&quot;box-sizing: border-box; color: rgb(146, 39, 143); font-weight: bold;&quot; class=&quot;json_key&quot;&gt;&quot;isEncrypt&quot;&lt;/span&gt;:&lt;span style=&quot;box-sizing: border-box; color: rgb(58, 181, 74); font-weight: bold;&quot; class=&quot;json_string&quot;&gt;&quot;encrypt&amp;nbsp;or&amp;nbsp;not&quot;&lt;/span&gt;&lt;br style=&quot;box-sizing: border-box;&quot;&gt;&amp;nbsp;&amp;nbsp;&amp;nbsp;&amp;nbsp;&amp;nbsp;&amp;nbsp;&amp;nbsp;&amp;nbsp;&amp;nbsp;&amp;nbsp;&amp;nbsp;&amp;nbsp;}&lt;/span&gt;,&lt;br style=&quot;box-sizing: border-box;&quot;&gt;&amp;nbsp;&amp;nbsp;&amp;nbsp;&amp;nbsp;&amp;nbsp;&amp;nbsp;&amp;nbsp;&amp;nbsp;&amp;nbsp;&amp;nbsp;&amp;nbsp;&amp;nbsp;&lt;span style=&quot;box-sizing: border-box;&quot; data-type=&quot;object&quot;&gt;&lt;span style=&quot;box-sizing: border-box; display: inline-block; font-variant-numeric: normal; font-variant-east-asian: normal; font-variant-alternates: normal; font-kerning: auto; font-optical-sizing: auto; font-feature-settings: normal; font-variation-settings: normal; font-stretch: normal; line-height: 1; font-family: FontAwesome; font-size: inherit; text-rendering: auto; -webkit-font-smoothing: antialiased; cursor: pointer;&quot; class=&quot;fa fa-minus-square-o&quot;&gt;&lt;/span&gt;{&lt;br style=&quot;box-sizing: border-box;&quot;&gt;&amp;nbsp;&amp;nbsp;&amp;nbsp;&amp;nbsp;&amp;nbsp;&amp;nbsp;&amp;nbsp;&amp;nbsp;&amp;nbsp;&amp;nbsp;&amp;nbsp;&amp;nbsp;&amp;nbsp;&amp;nbsp;&amp;nbsp;&amp;nbsp;&lt;span style=&quot;box-sizing: border-box; color: rgb(146, 39, 143); font-weight: bold;&quot; class=&quot;json_key&quot;&gt;&quot;name&quot;&lt;/span&gt;:&lt;span style=&quot;box-sizing: border-box; color: rgb(58, 181, 74); font-weight: bold;&quot; class=&quot;json_string&quot;&gt;&quot;attachment&amp;nbsp;name&quot;&lt;/span&gt;,&lt;br style=&quot;box-sizing: border-box;&quot;&gt;&amp;nbsp;&amp;nbsp;&amp;nbsp;&amp;nbsp;&amp;nbsp;&amp;nbsp;&amp;nbsp;&amp;nbsp;&amp;nbsp;&amp;nbsp;&amp;nbsp;&amp;nbsp;&amp;nbsp;&amp;nbsp;&amp;nbsp;&amp;nbsp;&lt;span style=&quot;box-sizing: border-box; color: rgb(146, 39, 143); font-weight: bold;&quot; class=&quot;json_key&quot;&gt;&quot;md5&quot;&lt;/span&gt;:&lt;span style=&quot;box-sizing: border-box; color: rgb(58, 181, 74); font-weight: bold;&quot; class=&quot;json_string&quot;&gt;&quot;md5&amp;nbsp;generated&amp;nbsp;from&amp;nbsp;attachment&quot;&lt;/span&gt;,&lt;br style=&quot;box-sizing: border-box;&quot;&gt;&amp;nbsp;&amp;nbsp;&amp;nbsp;&amp;nbsp;&amp;nbsp;&amp;nbsp;&amp;nbsp;&amp;nbsp;&amp;nbsp;&amp;nbsp;&amp;nbsp;&amp;nbsp;&amp;nbsp;&amp;nbsp;&amp;nbsp;&amp;nbsp;&lt;span style=&quot;box-sizing: border-box; color: rgb(146, 39, 143); font-weight: bold;&quot; class=&quot;json_key&quot;&gt;&quot;size&quot;&lt;/span&gt;:&lt;span style=&quot;box-sizing: border-box; color: rgb(58, 181, 74); font-weight: bold;&quot; class=&quot;json_string&quot;&gt;&quot;file&amp;nbsp;size&quot;&lt;/span&gt;,&lt;br style=&quot;box-sizing: border-box;&quot;&gt;&amp;nbsp;&amp;nbsp;&amp;nbsp;&amp;nbsp;&amp;nbsp;&amp;nbsp;&amp;nbsp;&amp;nbsp;&amp;nbsp;&amp;nbsp;&amp;nbsp;&amp;nbsp;&amp;nbsp;&amp;nbsp;&amp;nbsp;&amp;nbsp;&lt;span style=&quot;box-sizing: border-box; color: rgb(146, 39, 143); font-weight: bold;&quot; class=&quot;json_key&quot;&gt;&quot;url&quot;&lt;/span&gt;:&lt;span style=&quot;box-sizing: border-box; color: rgb(58, 181, 74); font-weight: bold;&quot; class=&quot;json_string&quot;&gt;&quot;attachment&amp;nbsp;download&amp;nbsp;url&quot;&lt;/span&gt;,&lt;br style=&quot;box-sizing: border-box;&quot;&gt;&amp;nbsp;&amp;nbsp;&amp;nbsp;&amp;nbsp;&amp;nbsp;&amp;nbsp;&amp;nbsp;&amp;nbsp;&amp;nbsp;&amp;nbsp;&amp;nbsp;&amp;nbsp;&amp;nbsp;&amp;nbsp;&amp;nbsp;&amp;nbsp;&lt;span style=&quot;box-sizing: border-box; color: rgb(146, 39, 143); font-weight: bold;&quot; class=&quot;json_key&quot;&gt;&quot;fileContent&quot;&lt;/span&gt;:&lt;span style=&quot;box-sizing: border-box; color: rgb(58, 181, 74); font-weight: bold;&quot; class=&quot;json_string&quot;&gt;&quot;attachment&amp;nbsp;content&quot;&lt;/span&gt;,&lt;br style=&quot;box-sizing: border-box;&quot;&gt;&amp;nbsp;&amp;nbsp;&amp;nbsp;&amp;nbsp;&amp;nbsp;&amp;nbsp;&amp;nbsp;&amp;nbsp;&amp;nbsp;&amp;nbsp;&amp;nbsp;&amp;nbsp;&amp;nbsp;&amp;nbsp;&amp;nbsp;&amp;nbsp;&lt;span style=&quot;box-sizing: border-box; color: rgb(146, 39, 143); font-weight: bold;&quot; class=&quot;json_key&quot;&gt;&quot;isMainFile&quot;&lt;/span&gt;:&lt;span style=&quot;box-sizing: border-box; color: rgb(58, 181, 74); font-weight: bold;&quot; class=&quot;json_string&quot;&gt;&quot;mainFile&amp;nbsp;or&amp;nbsp;not&quot;&lt;/span&gt;,&lt;br style=&quot;box-sizing: border-box;&quot;&gt;&amp;nbsp;&amp;nbsp;&amp;nbsp;&amp;nbsp;&amp;nbsp;&amp;nbsp;&amp;nbsp;&amp;nbsp;&amp;nbsp;&amp;nbsp;&amp;nbsp;&amp;nbsp;&amp;nbsp;&amp;nbsp;&amp;nbsp;&amp;nbsp;&lt;span style=&quot;box-sizing: border-box; color: rgb(146, 39, 143); font-weight: bold;&quot; class=&quot;json_key&quot;&gt;&quot;isEncrypt&quot;&lt;/span&gt;:&lt;span style=&quot;box-sizing: border-box; color: rgb(58, 181, 74); font-weight: bold;&quot; class=&quot;json_string&quot;&gt;&quot;encrypt&amp;nbsp;or&amp;nbsp;not&quot;&lt;/span&gt;&lt;br style=&quot;box-sizing: border-box;&quot;&gt;&amp;nbsp;&amp;nbsp;&amp;nbsp;&amp;nbsp;&amp;nbsp;&amp;nbsp;&amp;nbsp;&amp;nbsp;&amp;nbsp;&amp;nbsp;&amp;nbsp;&amp;nbsp;}&lt;/span&gt;&lt;br style=&quot;box-sizing: border-box;&quot;&gt;&amp;nbsp;&amp;nbsp;&amp;nbsp;&amp;nbsp;&amp;nbsp;&amp;nbsp;&amp;nbsp;&amp;nbsp;]&lt;/span&gt;,&lt;br style=&quot;box-sizing: border-box;&quot;&gt;&amp;nbsp;&amp;nbsp;&amp;nbsp;&amp;nbsp;&amp;nbsp;&amp;nbsp;&amp;nbsp;&amp;nbsp;&lt;span style=&quot;box-sizing: border-box; color: rgb(146, 39, 143); font-weight: bold;&quot; class=&quot;json_key&quot;&gt;&quot;data&quot;&lt;/span&gt;:&lt;span style=&quot;box-sizing: border-box;&quot; data-type=&quot;object&quot;&gt;&lt;span style=&quot;box-sizing: border-box; display: inline-block; font-variant-numeric: normal; font-variant-east-asian: normal; font-variant-alternates: normal; font-kerning: auto; font-optical-sizing: auto; font-feature-settings: normal; font-variation-settings: normal; font-stretch: normal; line-height: 1; font-family: FontAwesome; font-size: inherit; text-rendering: auto; -webkit-font-smoothing: antialiased; cursor: pointer;&quot; class=&quot;fa fa-minus-square-o&quot;&gt;&lt;/span&gt;{&lt;br style=&quot;box-sizing: border-box;&quot;&gt;&amp;nbsp;&amp;nbsp;&amp;nbsp;&amp;nbsp;&amp;nbsp;&amp;nbsp;&amp;nbsp;&amp;nbsp;&amp;nbsp;&amp;nbsp;&amp;nbsp;&amp;nbsp;&lt;span style=&quot;box-sizing: border-box; color: rgb(146, 39, 143); font-weight: bold;&quot; class=&quot;json_key&quot;&gt;&quot;dataId&quot;&lt;/span&gt;:&lt;span style=&quot;box-sizing: border-box; color: rgb(58, 181, 74); font-weight: bold;&quot; class=&quot;json_string&quot;&gt;&quot;unique&amp;nbsp;data&amp;nbsp;id&quot;&lt;/span&gt;,&lt;br style=&quot;box-sizing: border-box;&quot;&gt;&amp;nbsp;&amp;nbsp;&amp;nbsp;&amp;nbsp;&amp;nbsp;&amp;nbsp;&amp;nbsp;&amp;nbsp;&amp;nbsp;&amp;nbsp;&amp;nbsp;&amp;nbsp;&lt;span style=&quot;box-sizing: border-box; color: rgb(146, 39, 143); font-weight: bold;&quot; class=&quot;json_key&quot;&gt;&quot;other_fields&quot;&lt;/span&gt;:&lt;span style=&quot;box-sizing: border-box; color: rgb(58, 181, 74); font-weight: bold;&quot; class=&quot;json_string&quot;&gt;&quot;&quot;&lt;/span&gt;&lt;br style=&quot;box-sizing: border-box;&quot;&gt;&amp;nbsp;&amp;nbsp;&amp;nbsp;&amp;nbsp;&amp;nbsp;&amp;nbsp;&amp;nbsp;&amp;nbsp;}&lt;/span&gt;,&lt;br style=&quot;box-sizing: border-box;&quot;&gt;&amp;nbsp;&amp;nbsp;&amp;nbsp;&amp;nbsp;&amp;nbsp;&amp;nbsp;&amp;nbsp;&amp;nbsp;&lt;span style=&quot;box-sizing: border-box; color: rgb(146, 39, 143); font-weight: bold;&quot; class=&quot;json_key&quot;&gt;&quot;other_fields&quot;&lt;/span&gt;:&lt;span style=&quot;box-sizing: border-box; color: rgb(58, 181, 74); font-weight: bold;&quot; class=&quot;json_string&quot;&gt;&quot;&quot;&lt;/span&gt;&lt;br style=&quot;box-sizing: border-box;&quot;&gt;&amp;nbsp;&amp;nbsp;&amp;nbsp;&amp;nbsp;}&lt;/span&gt;&lt;br style=&quot;box-sizing: border-box; color: rgb(74, 85, 96); font-family: menlo, monospace, Tahoma, 微软雅黑, 幼圆; font-size: 14px; background-color: rgb(255, 255, 255);&quot;&gt;&lt;span style=&quot;color: rgb(74, 85, 96); font-family: menlo, monospace, Tahoma, 微软雅黑, 幼圆; font-size: 14px; background-color: rgb(255, 255, 255);&quot;&gt;]&lt;/span&gt;" style="text;html=1;strokeColor=none;fillColor=none;align=left;verticalAlign=top;whiteSpace=wrap;rounded=0;" vertex="1" parent="1">
          <mxGeometry x="47" y="570" width="490" height="500" as="geometry" />
        </mxCell>
      </root>
    </mxGraphModel>
  </diagram>
</mxfile>
